<svg viewBox="0 0 64 64" fill="none" xmlns="http://www.w3.org/2000/svg">
  <!-- Sofa back -->
  <path d="M10 20C10 17.8 11.8 16 14 16H50C52.2 16 54 17.8 54 20V34H10V20Z" fill="#0D9488"/>
  <path d="M12 20C12 18.9 12.9 18 14 18H50C51.1 18 52 18.9 52 20V32H12V20Z" fill="#0D9488" opacity="0.7"/>
  <!-- Seat cushions -->
  <rect x="12" y="30" width="40" height="10" rx="3" fill="#0D9488" opacity="0.9"/>
  <line x1="32" y1="31" x2="32" y2="39" stroke="#2563EB" stroke-width="1" opacity="0.3"/>
  <!-- Left armrest -->
  <rect x="4" y="22" width="8" height="22" rx="3" fill="#2563EB"/>
  <rect x="5" y="24" width="6" height="18" rx="2" fill="#2563EB" opacity="0.8"/>
  <!-- Right armrest -->
  <rect x="52" y="22" width="8" height="22" rx="3" fill="#2563EB"/>
  <rect x="53" y="24" width="6" height="18" rx="2" fill="#2563EB" opacity="0.8"/>
  <!-- Sofa base -->
  <rect x="8" y="42" width="48" height="4" rx="1" fill="#2563EB" opacity="0.6"/>
  <!-- Legs -->
  <rect x="12" y="46" width="4" height="6" rx="1" fill="#F59E0B"/>
  <rect x="48" y="46" width="4" height="6" rx="1" fill="#F59E0B"/>
  <!-- Pillow accents -->
  <ellipse cx="22" cy="24" rx="6" ry="4" fill="#F59E0B" opacity="0.25"/>
  <ellipse cx="42" cy="24" rx="6" ry="4" fill="#F59E0B" opacity="0.25"/>
</svg>
