<svg viewBox="0 0 64 64" fill="none" xmlns="http://www.w3.org/2000/svg">
  <!-- Row 1 -->
  <rect x="10" y="10" width="12" height="12" rx="3" fill="#0D9488"/>
  <rect x="26" y="10" width="12" height="12" rx="3" fill="#2563EB"/>
  <rect x="42" y="10" width="12" height="12" rx="3" fill="#F59E0B"/>
  <!-- Row 2 -->
  <rect x="10" y="26" width="12" height="12" rx="3" fill="#2563EB"/>
  <rect x="26" y="26" width="12" height="12" rx="3" fill="#F59E0B"/>
  <rect x="42" y="26" width="12" height="12" rx="3" fill="#0D9488"/>
  <!-- Row 3 -->
  <rect x="10" y="42" width="12" height="12" rx="3" fill="#F59E0B"/>
  <rect x="26" y="42" width="12" height="12" rx="3" fill="#0D9488"/>
  <rect x="42" y="42" width="12" height="12" rx="3" fill="#2563EB"/>
  <!-- Inner highlights -->
  <rect x="12" y="12" width="8" height="8" rx="2" fill="#0D9488" opacity="0.6"/>
  <rect x="28" y="12" width="8" height="8" rx="2" fill="#2563EB" opacity="0.6"/>
  <rect x="44" y="12" width="8" height="8" rx="2" fill="#F59E0B" opacity="0.6"/>
  <rect x="12" y="28" width="8" height="8" rx="2" fill="#2563EB" opacity="0.6"/>
  <rect x="28" y="28" width="8" height="8" rx="2" fill="#F59E0B" opacity="0.6"/>
  <rect x="44" y="28" width="8" height="8" rx="2" fill="#0D9488" opacity="0.6"/>
  <rect x="12" y="44" width="8" height="8" rx="2" fill="#F59E0B" opacity="0.6"/>
  <rect x="28" y="44" width="8" height="8" rx="2" fill="#0D9488" opacity="0.6"/>
  <rect x="44" y="44" width="8" height="8" rx="2" fill="#2563EB" opacity="0.6"/>
</svg>
